<!--?xml version="1.0" standalone="no"?-->

<svg version="1.0" xmlns="http://www.w3.org/2000/svg" width="300.000000pt" height="300.000000pt" viewBox="0 0 300.000000 300.000000" preserveAspectRatio="xMidYMid meet">
<g transform="translate(0.000000,300.000000) scale(0.100000,-0.100000)" fill="#ffffff" stroke="none">

<path d="M111 2974 l24 -27 -35 7 c-40 7 -92 -5 -98 -22 -2 -8 9 -12 30 -13
l33 -1 -32 -10 c-22 -7 -33 -17 -33 -30 0 -15 3 -17 19 -8 11 5 33 7 50 4 l31
-7 -25 -21 c-18 -16 -25 -32 -25 -59 0 -20 5 -37 10 -37 6 0 10 6 10 14 0 24
30 46 62 46 l31 0 -20 -22 c-34 -38 -45 -66 -34 -86 9 -15 10 -15 11 -1 0 22
45 69 65 69 15 0 15 -2 1 -22 -26 -37 -20 -101 11 -139 l28 -32 -40 6 c-41 6
-85 44 -85 73 0 8 -5 14 -11 14 -7 0 -9 -10 -7 -25 3 -14 3 -25 1 -25 -16 0
-47 26 -63 52 l-19 31 1 -52 c0 -48 3 -55 30 -70 63 -34 66 -39 40 -59 -13
-10 -25 -33 -29 -55 -8 -49 -23 -47 -23 3 0 22 -4 40 -10 40 -17 0 -13 -183 5
-206 13 -18 14 -16 15 21 0 22 5 47 10 55 7 11 10 7 10 -17 0 -38 14 -44 25
-10 6 18 8 19 12 5 2 -9 -1 -27 -8 -40 -7 -12 -17 -45 -24 -73 l-12 -50 -13
28 c-7 15 -17 27 -22 27 -15 0 -8 -45 12 -70 21 -27 27 -51 8 -32 -22 22 -26
12 -25 -75 0 -49 2 -73 4 -55 5 34 22 48 48 38 14 -5 14 -8 0 -30 -10 -15 -14
-33 -9 -50 7 -28 24 -36 24 -12 0 8 4 17 8 20 4 2 8 -13 7 -35 0 -21 -2 -39
-3 -39 -2 0 -19 7 -38 16 -40 19 -59 10 -29 -13 16 -13 17 -15 2 -10 -10 4
-17 1 -17 -6 0 -11 31 -32 84 -56 5 -2 7 6 3 18 -3 11 -1 19 3 16 9 -6 60 15
60 24 0 3 -5 26 -11 50 -17 75 19 141 78 141 32 0 38 -19 9 -30 -43 -16 -61
-56 -61 -135 1 -80 20 -123 103 -228 49 -62 97 -137 89 -137 -2 0 -22 28 -45
63 -54 83 -131 160 -188 186 -44 21 -47 21 -65 5 -18 -16 -19 -16 -19 1 0 17
-1 17 -20 0 -13 -12 -20 -31 -20 -54 l0 -36 53 0 c66 0 123 -34 164 -98 25
-38 28 -51 28 -128 0 -94 -12 -129 -72 -206 -32 -40 -103 -88 -150 -99 -13 -4
-23 -12 -23 -20 0 -10 6 -11 25 -4 14 5 25 7 25 5 0 -3 -11 -10 -25 -15 -22
-8 -25 -15 -25 -61 l0 -52 42 7 c23 4 48 12 55 18 7 5 42 13 78 16 78 6 137
-13 181 -59 24 -25 29 -39 29 -79 0 -40 -5 -54 -29 -79 -24 -25 -38 -31 -73
-31 -56 0 -93 24 -92 59 0 15 3 20 6 11 3 -8 12 -23 21 -32 39 -45 109 6 98
71 -8 50 -42 79 -110 93 -54 12 -61 11 -98 -10 -32 -17 -44 -19 -55 -11 -19
16 -27 5 -14 -20 8 -14 9 -32 3 -53 l-9 -33 -8 48 c-11 73 -25 66 -25 -14 0
-61 4 -76 22 -96 l21 -23 -20 0 c-20 0 -21 -6 -21 -87 l0 -86 25 31 c35 45 59
43 32 -2 -14 -24 -19 -48 -17 -78 l3 -43 14 45 c21 73 59 99 101 69 13 -9 13
-11 0 -16 -35 -14 -80 -71 -80 -102 0 -41 9 -39 42 9 20 29 35 40 53 40 30 0
39 -18 31 -63 -6 -30 -9 -33 -39 -29 -24 3 -38 -2 -56 -22 -24 -25 -22 -51 1
-28 17 17 45 15 52 -4 11 -29 6 -36 -18 -30 -31 8 -54 -1 -67 -25 -9 -18 -7
-19 15 -13 16 4 26 2 26 -5 0 -6 -8 -11 -18 -11 -10 0 -28 -7 -40 -16 l-22
-15 0 63 c0 65 -14 133 -29 143 -5 3 -9 -57 -8 -135 1 -77 4 -140 8 -140 3 0
18 14 34 30 19 20 35 28 47 25 9 -4 28 -1 40 5 21 11 21 10 -2 -9 -14 -12 -48
-32 -77 -46 -52 -25 -52 -26 -51 -70 l1 -44 41 34 c27 22 64 39 108 50 102 26
163 8 143 -42 -6 -16 -8 -15 -16 4 -7 19 -16 23 -49 23 -46 0 -51 -6 -15 -20
17 -7 25 -17 25 -34 0 -35 -21 -44 -38 -18 -12 18 -24 22 -63 22 -27 0 -49 -4
-49 -10 0 -5 11 -10 24 -10 44 0 56 -10 56 -46 0 -33 -12 -45 -25 -23 -20 31
-145 35 -145 4 0 -9 14 -13 50 -12 52 2 76 -12 82 -47 3 -18 -2 -20 -42 -18
-25 1 -56 -5 -70 -13 -23 -13 -18 -14 73 -15 92 0 97 1 97 21 0 27 36 86 60
99 10 6 34 9 52 9 20 -1 25 -3 13 -6 -46 -10 -72 -25 -88 -52 -21 -36 -22 -71
-2 -71 8 0 15 6 15 13 0 17 32 47 51 47 8 0 5 -6 -9 -16 -43 -30 -28 -44 48
-44 66 0 71 1 80 26 15 38 12 97 -6 140 -14 33 -14 36 -1 26 28 -23 47 -79 47
-136 0 -49 2 -56 20 -56 16 0 20 7 20 33 -1 56 -20 118 -48 155 -32 43 -107
92 -139 92 -13 0 -23 4 -23 10 0 23 134 -26 185 -68 50 -42 93 -109 105 -164
l13 -58 39 0 c37 0 38 1 32 28 -18 74 -49 125 -118 189 l-71 67 60 -42 c71
-50 112 -104 135 -181 l18 -56 55 -3 c41 -2 67 2 96 18 42 21 131 28 131 10 0
-5 -9 -10 -19 -10 -11 0 -23 -4 -26 -10 -4 -6 25 -10 79 -10 l86 0 0 28 1 27
24 -27 c13 -16 30 -28 36 -28 7 0 4 9 -8 22 -26 29 -56 88 -49 96 3 3 6 1 6
-5 0 -14 40 -56 74 -77 19 -12 43 -17 77 -14 36 2 48 0 44 -9 -3 -9 7 -13 30
-13 31 0 35 3 35 28 0 40 43 124 78 154 43 36 118 53 172 38 66 -18 126 -86
142 -161 l12 -59 38 0 c27 0 38 4 38 15 0 19 16 19 24 0 8 -21 27 -19 19 3
-11 33 -112 179 -151 218 -21 22 -60 52 -87 67 -46 26 -49 27 -73 11 -23 -15
-25 -15 -19 0 8 21 -1 20 -26 -2 -19 -16 -20 -16 -14 1 4 9 3 17 -2 17 -14 0
-41 -36 -41 -55 0 -15 -3 -16 -12 -7 -10 10 -10 17 0 33 18 28 7 37 -17 15
-12 -11 -21 -34 -23 -59 -3 -39 -4 -40 -20 -23 -45 45 -23 128 39 145 37 10
92 0 128 -23 29 -19 35 -20 35 -3 0 6 13 19 29 28 28 16 28 17 18 71 -8 42 -7
61 4 84 17 35 61 58 96 49 27 -6 21 -21 -11 -27 -33 -6 -59 -53 -64 -115 -5
-72 23 -141 94 -229 27 -34 69 -96 94 -137 41 -69 48 -76 76 -77 l31 0 0 168
c-1 203 16 281 69 333 30 29 42 34 98 37 59 4 67 2 91 -22 l26 -26 -21 -30
c-12 -17 -37 -42 -55 -56 -68 -52 -127 -165 -160 -306 -8 -37 -18 -74 -21 -82
-3 -9 -2 -16 3 -16 6 0 16 19 23 43 34 107 83 166 146 173 67 8 115 -34 83
-73 -8 -8 -45 -37 -84 -63 -82 -55 -107 -80 -81 -80 10 0 25 4 34 9 9 5 38 12
63 16 35 5 49 3 62 -9 10 -11 33 -16 67 -16 l52 0 -32 31 c-32 32 -36 62 -10
67 9 1 44 -19 80 -45 l64 -48 134 -3 c144 -4 150 -2 238 67 11 9 0 -3 -24 -26
l-44 -43 82 0 82 0 39 43 c53 58 53 93 1 44 l-25 -22 13 25 c7 14 21 35 30 47
19 24 27 129 10 118 -6 -4 -6 4 0 21 16 40 11 300 -6 340 -18 43 -18 78 1 94
16 14 21 50 6 50 -13 0 -51 -55 -51 -74 0 -17 -15 -22 -24 -7 -3 5 -31 23 -61
40 -95 53 -121 151 -71 264 39 89 109 97 165 18 27 -38 27 -38 -11 -55 -57
-24 -82 -60 -83 -118 0 -32 5 -53 13 -55 8 -3 12 8 12 35 0 69 49 109 101 82
18 -10 19 -7 19 70 0 65 -3 80 -15 80 -30 0 -201 89 -240 125 l-40 36 55 -39
c57 -41 165 -95 213 -106 22 -5 27 -3 27 13 0 12 -8 21 -22 24 l-23 4 23 2
c39 2 24 20 -20 24 l-43 4 43 1 c60 3 52 20 -10 25 l-53 3 53 2 c36 1 52 6 52
16 0 9 -9 12 -27 10 l-28 -4 28 11 c26 10 27 13 27 84 l0 73 -36 -1 c-30 -1
-43 6 -69 35 -81 88 -46 257 65 320 39 22 40 25 40 77 0 53 0 54 -20 36 -11
-10 -20 -27 -20 -39 0 -14 -3 -17 -11 -9 -8 8 -8 17 1 33 17 31 2 39 -21 11
-10 -13 -19 -38 -19 -57 0 -19 -4 -34 -8 -34 -19 0 -32 28 -32 70 0 61 32 95
91 95 40 0 55 19 22 28 -17 4 -17 5 0 6 9 0 17 8 17 16 0 16 -3 16 -146 19
-82 1 -114 13 -114 43 0 10 8 8 30 -8 39 -29 49 -18 16 18 -14 15 -26 39 -26
52 0 22 3 21 39 -18 21 -22 47 -41 58 -41 17 0 14 7 -19 40 -21 23 -38 45 -38
50 0 5 11 21 23 36 l24 27 6 -41 c8 -46 50 -102 77 -102 16 0 15 4 -6 47 -41
80 -27 107 40 79 l36 -15 0 29 c0 24 -7 33 -40 50 -44 22 -72 25 -101 10 -28
-15 -25 14 3 34 31 22 80 20 112 -5 l26 -20 0 25 c0 14 -9 32 -22 41 l-23 17
23 -7 c22 -6 23 -4 20 36 -3 39 -6 43 -42 56 -46 16 -76 40 -76 62 0 8 24 37
53 65 l52 49 -35 -7 c-19 -3 -48 -20 -64 -36 -25 -24 -30 -39 -34 -90 l-4 -60
-37 6 c-58 10 -101 41 -101 73 0 40 45 103 98 137 41 25 57 29 118 29 l71 0 1
90 c2 62 -1 85 -8 75 -5 -8 -10 -28 -10 -43 0 -16 -4 -26 -10 -22 -18 11 -11
91 10 118 11 14 20 30 20 36 0 22 -20 10 -42 -24 -13 -19 -26 -35 -31 -35 -13
0 24 64 50 86 14 12 24 27 21 34 -2 8 -17 0 -41 -22 -20 -20 -37 -32 -37 -29
0 11 47 71 66 85 9 7 15 19 12 26 -4 14 -40 -15 -72 -60 l-18 -25 6 48 6 47
-85 0 c-61 0 -98 -6 -135 -20 -37 -15 -74 -20 -139 -20 -62 0 -105 6 -146 20
-32 11 -82 20 -111 20 -46 0 -56 -4 -86 -34 -19 -19 -53 -39 -75 -45 -31 -8
-56 -27 -93 -69 -29 -31 -49 -51 -46 -45 4 7 14 38 22 69 8 31 23 69 34 84 24
33 25 40 6 40 -17 0 -45 -42 -63 -95 l-13 -40 4 68 c4 67 -5 87 -19 45 l-8
-23 -4 23 c-3 17 -11 22 -34 22 -16 0 -29 -5 -29 -11 0 -9 -4 -9 -14 0 -11 9
-12 2 -8 -38 3 -40 1 -52 -17 -70 -21 -21 -54 -27 -85 -15 -24 9 -19 24 7 24
13 0 32 8 41 19 16 18 15 18 -11 14 l-28 -4 25 15 c16 9 25 24 25 40 1 24 -3
26 -40 26 l-40 0 -17 -70 c-18 -77 -58 -143 -111 -183 -39 -29 -132 -67 -162
-66 -16 1 -15 2 6 9 108 32 189 144 189 260 0 46 -2 50 -24 50 -24 0 -24 -2
-19 -55 6 -58 -14 -132 -43 -155 -17 -15 -19 1 -1 19 20 20 15 131 -7 164 -18
26 -23 28 -80 25 -50 -2 -61 -6 -64 -21 -2 -10 4 -27 14 -38 9 -10 12 -19 6
-19 -15 0 -42 40 -42 63 0 11 -5 17 -12 14 -8 -2 -12 -19 -11 -42 3 -45 38
-87 86 -103 28 -9 29 -10 8 -11 -56 -2 -121 69 -121 134 0 26 -1 27 -42 20
-62 -9 -119 -9 -148 0 -22 8 -24 7 -11 -8 32 -40 114 -60 139 -35 9 9 12 6 12
-13 0 -37 -29 -59 -79 -59 -37 0 -49 5 -80 38 -20 22 -44 50 -53 63 -15 20
-19 22 -28 9 -6 -10 -10 -11 -10 -2 0 21 -55 13 -96 -14 -50 -33 -62 -49 -75
-99 -19 -69 -39 -102 -81 -130 -35 -23 -42 -25 -55 -13 -12 12 -12 23 -2 64
10 39 25 62 75 111 34 35 75 68 90 74 17 7 24 13 16 16 -25 9 -58 -7 -105 -52
-26 -25 -52 -45 -57 -45 -18 0 -11 46 11 74 l20 26 -55 0 -56 0 0 -87 c-1
-119 -32 -192 -82 -193 -25 0 -22 23 8 83 25 52 54 146 54 179 0 14 -8 18 -40
18 l-40 0 0 -43 c0 -27 -10 -63 -26 -96 -90 -181 -332 -133 -366 72 l-11 67
-45 0 -45 0 24 -26z m2776 -86 c-2 -18 -4 -4 -4 32 0 36 2 50 4 33 2 -18 2
-48 0 -65z m-958 33 c6 -19 9 -36 7 -38 -2 -2 -11 17 -20 44 -9 26 -12 43 -7
38 4 -6 13 -25 20 -44z m-990 -11 c-36 -45 -45 -51 -28 -17 10 18 47 56 57 57
2 0 -12 -18 -29 -40z m39 -11 c-12 -35 -5 -115 17 -174 31 -86 10 -125 -44
-80 -66 57 -59 177 17 268 21 24 23 22 10 -14z m1907 -127 c9 -30 25 -68 36
-85 10 -18 19 -35 19 -39 0 -5 -29 -8 -65 -8 -86 0 -140 32 -183 108 -16 30
-5 28 20 -3 11 -14 24 -25 29 -25 6 0 1 12 -10 26 -25 32 -35 81 -23 114 8 22
10 20 16 -22 4 -25 14 -52 21 -58 13 -11 15 -4 15 48 0 41 5 63 15 72 13 11
15 7 15 -27 0 -63 18 -143 37 -161 16 -16 16 -16 8 3 -14 35 -18 158 -4 190
l12 30 12 -55 c7 -30 20 -79 30 -108z m-318 138 l25 0 -33 -39 c-19 -22 -42
-50 -52 -63 l-18 -23 6 23 c7 24 -4 29 -23 10 -8 -8 -12 -9 -12 -1 0 6 15 23
33 37 27 22 29 26 12 26 -14 0 -21 7 -21 21 0 17 5 20 29 15 16 -3 41 -6 54
-6z m-202 -24 c56 -37 74 -110 42 -173 -32 -60 -141 -76 -175 -25 -8 12 -10
22 -4 22 5 0 12 -7 16 -15 7 -19 65 -20 90 -2 21 15 24 73 7 106 -39 72 -208
63 -287 -16 -26 -25 -34 -29 -34 -16 0 27 102 119 146 131 54 15 167 9 199
-12z m-1271 -2 c3 -8 2 -12 -4 -9 -6 3 -10 10 -10 16 0 14 7 11 14 -7z m111
-35 c57 -4 85 1 104 20 17 17 20 17 25 4 17 -43 -6 -73 -54 -73 -12 0 -18 -4
-15 -10 3 -5 24 -10 45 -10 30 0 42 6 58 27 l20 28 13 -27 c13 -30 0 -58 -27
-58 -8 0 -14 -4 -14 -10 0 -20 68 -11 83 10 12 18 15 18 20 5 4 -8 4 -22 0
-31 -5 -13 -20 -15 -87 -12 -74 3 -86 6 -138 41 -49 33 -128 120 -128 141 0 4
15 -4 33 -18 17 -13 46 -25 62 -27z m711 -4 c-3 -9 -20 -23 -38 -31 l-33 -15
42 5 c49 5 49 5 58 -48 l8 -39 -39 6 c-36 6 -37 5 -20 -8 11 -8 28 -15 38 -15
25 0 38 -38 38 -108 l0 -57 -30 51 c-31 55 -77 99 -125 120 -16 7 -24 13 -17
14 16 0 92 -38 115 -58 9 -8 20 -12 24 -8 11 11 -34 42 -107 72 -68 28 -100
50 -100 67 0 6 9 1 20 -11 17 -18 32 -22 86 -22 71 0 79 14 14 23 -45 6 -90
31 -90 49 0 9 3 9 12 0 7 -7 23 -12 38 -12 30 0 90 35 90 52 0 9 3 9 11 1 7
-7 9 -19 5 -28z m49 -34 c7 -28 10 -51 5 -51 -4 0 -10 18 -14 39 -3 22 -9 48
-13 58 -3 10 -3 15 1 12 4 -4 13 -30 21 -58z m-841 23 c3 -8 2 -12 -4 -9 -6 3
-10 10 -10 16 0 14 7 11 14 -7z m1480 -143 c-11 -13 -24 18 -24 57 0 89 14
103 21 22 3 -41 5 -77 3 -79z m-1515 5 c35 -66 46 -114 37 -151 -10 -40 -39
-31 -64 20 -23 48 -47 204 -36 238 6 20 8 19 20 -13 7 -19 26 -62 43 -94z
m1182 107 c13 -16 12 -17 -3 -5 -9 8 -27 12 -39 10 -31 -4 -40 -46 -27 -117 9
-53 7 -95 -8 -151 -6 -22 -5 -23 9 -10 9 8 20 31 25 50 l10 35 1 -45 c1 -37
-5 -53 -34 -89 -38 -48 -74 -74 -117 -84 -14 -4 -32 -9 -40 -12 -10 -4 -13 22
-13 139 0 141 0 144 19 128 24 -21 59 -98 59 -129 0 -34 15 -38 23 -7 9 35
-21 120 -54 157 l-26 27 23 0 c28 0 81 -54 81 -84 1 -19 1 -19 11 -3 16 28
-21 137 -48 137 -7 0 -13 5 -13 11 0 6 8 9 18 6 9 -2 23 -6 31 -8 9 -3 17 8
23 29 7 28 13 32 42 32 20 0 39 -7 47 -17z m658 -58 c0 -5 -4 -3 -9 5 -5 8 -9
22 -9 30 0 16 17 -16 18 -35z m-406 -10 c-4 -33 -1 -51 11 -71 17 -24 17 -26
0 -22 -9 1 -26 15 -36 29 -20 26 -20 26 1 68 12 22 23 41 26 41 3 0 2 -20 -2
-45z m-1643 -10 c0 -49 -7 -54 -40 -27 l-22 18 23 27 c13 15 27 27 32 27 4 0
7 -20 7 -45z m-615 -64 c19 -19 32 -7 15 14 -10 12 -10 19 -2 27 9 9 12 8 12
-3 0 -27 30 -61 44 -50 9 7 16 7 25 -2 11 -9 14 -9 18 0 3 10 10 10 25 2 19
-10 18 -12 -18 -35 -56 -34 -127 -33 -159 2 -31 33 -34 97 -8 127 17 18 18 18
25 -24 4 -24 14 -50 23 -58z m1008 49 c6 0 8 -3 5 -6 -8 -7 -61 21 -78 42 -8
9 3 5 24 -10 21 -14 43 -26 49 -26z m-104 -42 c6 -27 11 -66 10 -86 -1 -23 -6
-8 -13 43 -7 44 -18 92 -25 105 -11 23 -11 24 3 6 8 -10 20 -40 25 -68z m1589
-26 l42 -23 -32 -27 c-17 -15 -44 -46 -58 -69 -24 -38 -29 -41 -41 -27 -9 12
-10 23 -2 43 9 25 7 29 -18 43 -15 9 -33 27 -39 40 -10 19 -10 21 1 11 7 -7
24 -13 37 -13 22 0 24 3 18 33 -4 17 -10 48 -13 67 l-6 35 34 -45 c19 -25 54
-55 77 -68z m-995 81 c-7 -2 -21 -2 -30 0 -10 3 -4 5 12 5 17 0 24 -2 18 -5z
m-5 -25 c50 -11 117 -60 149 -107 36 -54 27 -54 -23 -1 -68 73 -118 94 -210
88 -41 -3 -74 -3 -74 -1 0 10 87 41 100 36 8 -3 34 -10 58 -15z m241 -67 c1
-74 -5 -61 -11 24 -3 40 -2 61 3 50 4 -11 8 -44 8 -74z m-1470 -11 c-9 -121
-59 -207 -59 -104 0 14 6 40 14 59 14 32 13 35 -7 48 -22 15 -22 15 17 51 22
19 40 35 41 33 1 -1 -2 -40 -6 -87z m2441 65 c14 -19 14 -19 -2 -6 -10 7 -18
18 -18 24 0 6 1 8 3 6 1 -2 9 -13 17 -24z m-1625 -83 c-5 -5 -112 64 -120 77
-3 6 23 -8 58 -31 36 -24 63 -45 62 -46z m-2 81 c-7 -2 -19 -2 -25 0 -7 3 -2
5 12 5 14 0 19 -2 13 -5z m-517 -19 c49 -20 90 -58 115 -106 27 -53 25 -90 -8
-119 -23 -20 -25 -21 -9 -2 60 71 -24 187 -136 187 -39 0 -53 -5 -78 -29 -26
-25 -30 -36 -30 -84 0 -82 38 -139 125 -190 31 -18 56 -24 106 -24 37 -1 73 3
80 9 20 15 76 37 64 26 -26 -26 -116 -62 -166 -68 -191 -22 -352 133 -304 293
30 102 138 150 241 107z m614 12 c0 -8 -61 -12 -66 -4 -3 4 11 8 30 8 20 0 36
-2 36 -4z m80 -16 c-19 -11 -44 -19 -55 -19 -11 0 -3 6 18 14 21 7 41 16 44
19 4 3 11 6 17 6 6 -1 -5 -9 -24 -20z m273 -30 c46 -24 97 -68 97 -84 0 -5
-12 2 -27 16 -74 69 -159 85 -254 48 -28 -12 -54 -18 -57 -15 -9 9 40 55 59
55 10 0 20 4 23 8 8 14 114 -5 159 -28z m-505 -38 c-4 -2 -8 -11 -8 -19 0 -14
-3 -14 -19 1 -19 18 -20 17 -15 -41 5 -56 4 -57 -9 -28 l-15 30 -10 -25 c-9
-20 -11 -8 -11 63 l-1 87 48 -32 c27 -18 45 -34 40 -36z m-1212 2 c18 -14 18
-14 -6 -3 -31 14 -36 19 -24 19 6 0 19 -7 30 -16z m340 1 c-11 -8 -25 -15 -30
-15 -6 1 0 7 14 15 32 19 40 18 16 0z m1875 -27 c6 -24 13 -49 15 -55 5 -19
21 -16 44 9 l20 22 0 -25 c0 -14 -7 -34 -15 -45 -19 -26 -19 -32 5 -39 14 -5
20 -15 20 -37 0 -23 -3 -28 -12 -21 -15 12 -90 39 -130 47 l-27 6 24 43 c17
28 25 58 25 90 0 58 15 61 31 5z m-906 14 c-3 -3 -11 0 -18 7 -9 10 -8 11 6 5
10 -3 15 -9 12 -12z m108 11 c-7 -2 -21 -2 -30 0 -10 3 -4 5 12 5 17 0 24 -2
18 -5z m280 -14 c22 -6 55 -25 74 -43 28 -25 36 -41 40 -79 5 -43 3 -49 -31
-83 -35 -35 -39 -36 -88 -32 -34 4 -56 12 -65 24 -22 31 -14 44 12 19 36 -37
70 -32 94 12 16 32 14 61 -9 93 -42 59 -152 80 -204 39 -22 -17 -29 -19 -42
-9 -20 17 -28 6 -15 -18 8 -15 8 -28 -1 -49 -11 -28 -11 -28 -19 20 -4 27 -9
51 -11 52 -2 2 -24 13 -48 24 -43 20 -43 21 -10 14 51 -11 99 -8 155 10 60 18
117 21 168 6z m772 -12 c17 -13 16 -15 -10 -33 -44 -31 -75 -66 -75 -85 0 -31
-17 -21 -22 12 -13 88 48 148 107 106z m-2336 -13 c9 -8 -55 -2 -74 6 -13 6
-5 7 25 3 25 -3 47 -7 49 -9z m148 10 c-3 -3 -12 -4 -19 -1 -8 3 -5 6 6 6 11
1 17 -2 13 -5z m61 -41 c1 -45 0 -47 -12 -24 l-13 24 -12 -21 c-13 -24 -2 -57
21 -64 8 -3 4 -9 -10 -17 -31 -16 -56 2 -47 36 9 36 -12 27 -24 -10 -11 -33
-6 -66 12 -78 11 -7 -54 -49 -76 -49 -29 0 -30 39 -3 93 14 28 23 53 21 55 -2
2 -13 -2 -25 -8 -31 -16 -60 -70 -60 -110 l-1 -35 -24 28 c-34 39 -32 54 17
99 23 21 36 38 29 38 -23 0 -69 -29 -90 -57 l-20 -28 -1 28 c0 17 10 38 25 53
14 14 25 27 25 29 0 9 -36 -9 -57 -28 -19 -17 -23 -18 -23 -5 0 33 31 43 149
48 94 4 124 9 156 27 22 12 41 22 41 22 1 1 2 -20 2 -46z m450 31 c12 -8 22
-22 22 -30 0 -10 -5 -9 -20 6 -26 26 -44 25 -70 -2 -30 -33 -26 -80 10 -116
39 -39 90 -56 153 -49 37 3 45 2 32 -6 -42 -23 -97 -28 -150 -13 -62 19 -95
42 -119 89 -22 40 -17 72 18 110 29 32 88 37 124 11z m-555 -1 c-7 -2 -21 -2
-30 0 -10 3 -4 5 12 5 17 0 24 -2 18 -5z m1087 -8 c16 -8 38 -29 51 -46 24
-35 26 -32 -36 -64 -46 -24 -77 -102 -59 -149 10 -26 24 -18 24 14 0 17 7 46
14 65 13 30 20 35 49 35 24 0 41 -8 62 -30 26 -27 27 -30 9 -36 -57 -18 -73
-28 -84 -50 -17 -30 -6 -42 18 -21 10 10 29 17 41 17 21 0 20 -3 -13 -34 -23
-21 -36 -43 -36 -59 l0 -26 -52 34 c-115 73 -137 113 -123 219 7 57 18 80 53
119 29 31 42 33 82 12z m-240 -65 l-11 -25 6 25 c2 14 5 34 6 45 2 19 2 19 6
0 2 -12 -1 -32 -7 -45z m573 19 c26 -14 37 -28 37 -49 0 -9 -5 -7 -16 8 -18
26 -74 30 -98 6 -32 -32 -14 -104 33 -129 39 -19 131 -19 179 1 20 8 52 29 70
46 40 40 42 25 3 -28 -82 -111 -291 -130 -351 -32 -39 63 -16 145 48 172 45
18 67 19 95 5z m844 -34 c1 -5 -10 -17 -26 -26 -17 -10 -35 -32 -42 -53 -17
-48 -29 -45 -29 7 0 58 23 89 63 85 17 -2 32 -7 34 -13z m-585 -125 c-7 -19
-9 -8 -6 40 5 87 7 94 11 35 2 -28 0 -62 -5 -75z m665 70 c32 -12 67 -69 57
-95 -9 -22 -23 -18 -17 5 7 25 -23 60 -50 60 -35 0 -67 -39 -67 -81 0 -47 49
-114 105 -146 51 -29 18 -31 -40 -3 -51 24 -75 46 -103 93 -38 65 -25 134 33
165 25 14 44 15 82 2z m-2095 -44 c9 -42 43 -95 87 -134 31 -28 9 -19 -37 16
-47 35 -92 100 -92 134 0 46 32 33 42 -16z m673 17 c0 -16 4 -46 8 -68 l6 -40
-93 0 c-101 0 -106 5 -57 49 21 19 21 19 21 -2 0 -34 17 -26 31 16 l12 37 15
-35 15 -35 7 30 c6 27 27 75 33 75 1 0 2 -12 2 -27z m-115 14 c0 -2 -12 -14
-27 -28 l-28 -24 24 28 c23 25 31 32 31 24z m1142 -9 c74 -22 86 -82 32 -154
l-27 -35 -28 34 c-36 43 -95 61 -147 44 -57 -19 -49 -32 18 -29 38 3 66 -1 75
-8 20 -17 18 -58 -5 -100 l-18 -35 -10 25 c-13 33 -40 57 -74 65 -32 8 -38 -9
-9 -24 19 -11 35 -40 27 -49 -3 -2 -17 5 -32 17 -15 11 -41 21 -59 21 l-32 0
13 43 c7 23 15 54 18 69 9 43 53 85 109 107 61 23 95 25 149 9z m194 -39 l16
-31 -23 16 c-13 9 -32 16 -42 16 -16 0 -17 3 -7 15 19 23 38 18 56 -16z
m-2044 -19 c6 0 4 -8 -4 -17 -23 -26 -64 -111 -79 -163 -22 -79 -32 -71 -24
20 9 113 42 177 83 164 8 -2 18 -4 24 -4z m81 -67 c-1 -42 -10 -89 -22 -121
-44 -111 -54 -185 -47 -352 3 -85 8 -184 11 -220 4 -54 3 -60 -6 -35 -6 17
-14 39 -19 50 -11 26 -38 141 -55 240 -37 206 -36 194 -11 275 27 87 77 191
107 221 34 34 44 19 42 -58z m2372 63 l30 -13 -46 1 c-33 1 -53 -5 -68 -18
-27 -24 -28 -3 -1 24 23 23 43 24 85 6z m-404 -27 c38 -27 37 -41 -1 -27 -17
5 -46 8 -65 6 -36 -4 -45 8 -23 30 18 18 57 14 89 -9z m-495 -54 c-8 -31 -18
-60 -22 -63 -3 -4 -4 2 -1 13 3 11 11 42 18 68 6 26 14 46 16 43 2 -2 -3 -30
-11 -61z m-1766 5 c0 -5 -6 -10 -14 -10 -33 0 -63 -40 -77 -100 -15 -68 -27
-59 -28 21 -1 65 27 99 80 99 21 0 39 -4 39 -10z m2577 -24 c-19 -29 -22 -31
-25 -13 -2 12 4 27 14 34 30 22 34 15 11 -21z m-1599 17 c-15 -2 -42 -2 -60 0
-18 2 -6 4 27 4 33 0 48 -2 33 -4z m1330 -28 l27 -28 -27 16 c-55 34 -138 13
-138 -34 0 -10 9 -23 21 -29 11 -7 18 -14 16 -17 -10 -9 -48 18 -56 40 -9 24
3 67 22 80 7 4 34 6 60 4 37 -3 55 -11 75 -32z m-1445 18 c-7 -2 -19 -2 -25 0
-7 3 -2 5 12 5 14 0 19 -2 13 -5z m26 -40 c-57 -62 -88 -147 -68 -185 13 -24
7 -32 -19 -24 -30 10 -56 67 -48 107 10 56 89 122 150 128 6 1 -2 -11 -15 -26z
m411 8 c-13 -25 -13 -61 0 -61 6 0 10 8 10 18 0 21 46 69 56 59 4 -3 -1 -18
-10 -32 -20 -30 -24 -91 -8 -107 9 -9 12 -3 12 24 0 37 31 88 55 88 8 0 26 -5
42 -11 l28 -11 -30 -13 c-41 -17 -73 -55 -81 -93 -4 -18 -4 -32 0 -32 3 0 26
20 49 45 48 50 61 54 77 25 15 -28 2 -94 -15 -80 -25 20 -95 -28 -95 -65 0 -6
3 -6 8 1 4 6 17 14 29 18 16 5 25 2 32 -13 16 -29 14 -34 -14 -27 -16 4 -34 0
-50 -10 -28 -18 -34 -40 -9 -30 9 3 20 3 26 0 6 -4 -7 -13 -28 -20 -22 -8 -39
-14 -39 -14 0 0 -1 28 -1 63 -1 49 -9 79 -38 139 -37 80 -45 125 -24 146 19
19 30 14 18 -7z m337 -14 c31 -28 36 -51 23 -95 -11 -34 -65 -102 -81 -102 -4
0 -9 11 -11 24 -4 17 -1 23 9 19 20 -8 15 14 -9 37 -12 11 -17 20 -12 20 6 0
15 -5 22 -12 6 -6 14 -9 17 -6 10 10 -7 37 -26 43 -10 4 -19 11 -19 16 0 15
22 10 43 -8 20 -17 20 -17 14 0 -4 10 -7 22 -7 27 0 5 -18 17 -41 26 -37 17
-39 20 -22 31 23 17 71 8 100 -20z m-1078 7 c10 -9 -56 -3 -69 7 -11 7 -4 8
25 3 22 -4 42 -8 44 -10z m386 6 c-3 -5 -11 -10 -16 -10 -6 0 -7 5 -4 10 3 6
11 10 16 10 6 0 7 -4 4 -10z m54 -5 c-31 -17 -54 -50 -67 -96 l-10 -34 -1 40
c-1 31 6 47 30 73 17 18 40 32 52 32 21 -1 21 -2 -4 -15z m141 5 c8 -5 11 -10
5 -10 -5 0 -17 5 -25 10 -8 5 -10 10 -5 10 6 0 17 -5 25 -10z m-513 -6 c-3 -3
-12 -4 -19 -1 -8 3 -5 6 6 6 11 1 17 -2 13 -5z m451 -31 c-47 -12 -37 -17 33
-13 37 1 52 -4 77 -25 37 -31 40 -42 12 -41 -30 1 -24 -18 9 -27 34 -8 71 -54
71 -88 l0 -22 -23 21 c-28 27 -101 30 -135 6 -13 -9 -26 -14 -29 -11 -11 12
10 47 40 67 l32 22 -35 -6 c-21 -4 -46 -18 -62 -36 l-28 -30 0 40 c0 33 4 42
25 52 34 15 31 28 -5 28 -21 0 -39 -9 -56 -27 -21 -23 -27 -25 -34 -13 -16 26
-11 57 15 88 29 35 90 54 118 38 15 -9 11 -13 -25 -23z m-1033 7 c3 -6 -4 -10
-18 -10 -13 0 -36 -9 -51 -21 -29 -23 -34 -15 -10 19 16 23 67 31 79 12z m429
-11 c32 -25 35 -65 6 -74 -11 -4 -35 -6 -53 -5 -73 4 -101 -11 -142 -73 -10
-15 -19 -26 -21 -25 -1 2 2 25 7 51 9 52 52 120 84 136 35 17 90 12 119 -10z
m256 16 c0 -2 -10 -9 -22 -15 -22 -11 -22 -10 -4 4 21 17 26 19 26 11z m190
-4 c0 -5 -6 -11 -12 -13 -9 -3 -13 -29 -13 -81 0 -80 -8 -91 -34 -45 -12 21
-13 33 -3 64 16 54 62 109 62 75z m-182 -37 c-28 -48 -27 -116 2 -156 23 -31
19 -48 -9 -48 -23 0 -48 28 -53 60 -4 22 -5 21 -12 -11 -9 -41 14 -89 42 -89
13 0 12 -3 -3 -20 -10 -11 -24 -20 -31 -20 -8 0 -19 9 -26 20 -17 26 -28 25
-28 -2 1 -26 18 -52 40 -60 12 -5 11 -7 -4 -13 -70 -29 -84 121 -23 238 25 47
104 137 121 137 3 0 -4 -16 -16 -36z m482 6 c27 -26 36 -40 27 -40 -2 0 -18
16 -37 35 -41 42 -33 47 10 5z m472 -68 c-44 -74 -141 -177 -193 -205 -29 -15
-30 -15 -9 -1 59 41 176 172 205 230 17 33 32 56 33 52 2 -5 -14 -39 -36 -76z
m377 -9 c45 -22 81 21 49 57 -11 12 -10 12 4 1 45 -34 28 -91 -27 -91 -38 0
-62 19 -81 67 -23 53 -16 71 9 23 12 -25 33 -50 46 -57z m-1389 74 c0 -2 -10
-12 -22 -23 l-23 -19 19 23 c18 21 26 27 26 19z m1155 -17 c3 -5 -3 -10 -13
-10 -11 0 -30 -8 -42 -18 -21 -17 -21 -17 25 -14 26 3 52 -1 58 -7 8 -8 6 -11
-6 -11 -30 0 -97 -32 -108 -52 -10 -18 -9 -19 20 -4 36 19 95 21 108 4 6 -7
13 -26 17 -42 l7 -28 -34 21 c-39 24 -91 27 -127 6 -29 -16 -21 -20 49 -28 24
-3 51 -13 60 -22 15 -15 13 -19 -17 -46 -39 -35 -44 -36 -57 -7 -11 24 -80 56
-93 43 -4 -4 3 -14 16 -22 18 -13 32 -53 18 -53 -2 0 -11 -3 -20 -6 -11 -4
-16 0 -16 15 0 28 -34 44 -76 36 -19 -3 -34 -4 -34 -3 0 2 27 31 59 65 33 33
69 79 80 101 34 67 106 114 126 82z m487 -81 c4 -54 9 -66 36 -90 31 -28 102
-43 87 -19 -3 6 -11 10 -18 10 -21 0 -77 63 -77 87 0 25 50 63 83 63 14 0 16
-6 12 -37 -6 -38 10 -83 30 -90 6 -2 10 15 10 39 0 24 5 43 13 45 7 3 10 -1 6
-10 -6 -17 22 -78 42 -90 17 -10 18 -27 2 -27 -7 0 -33 -14 -57 -30 -59 -40
-83 -45 -149 -30 -46 10 -65 21 -109 65 -43 44 -53 60 -53 87 1 55 38 85 111
87 25 1 27 -2 31 -60z m-1682 47 c0 -2 -8 -10 -17 -17 -16 -13 -17 -12 -4 4
13 16 21 21 21 13z m650 -51 c0 -5 -5 -3 -10 5 -5 8 -10 20 -10 25 0 6 5 3 10
-5 5 -8 10 -19 10 -25z m688 -33 c16 -93 -2 -159 -52 -183 -16 -8 -15 -6 4 10
21 17 25 28 24 73 0 29 -4 70 -8 90 -9 39 -3 68 13 68 5 0 13 -26 19 -58z
m-1379 9 c-6 -18 -13 -30 -15 -28 -2 2 1 18 7 36 6 18 13 30 15 28 2 -2 -1
-18 -7 -36z m-87 12 c31 -28 21 -53 -50 -122 -73 -71 -106 -128 -147 -260 -14
-42 -28 -103 -31 -136 -12 -99 -22 -31 -23 160 -1 235 18 311 92 355 41 26
132 27 159 3z m-411 -68 c9 -75 38 -217 48 -230 5 -5 14 -38 21 -73 7 -34 17
-65 21 -68 5 -3 9 -13 9 -22 0 -9 -21 19 -47 63 -44 77 -94 149 -118 170 -62
56 -60 160 5 212 8 7 24 12 35 10 17 -2 21 -12 26 -62z m2065 13 c3 -12 27
-42 53 -66 43 -42 45 -45 26 -58 -10 -8 -24 -14 -30 -14 -16 0 -72 -60 -84
-90 -9 -24 -10 -23 -10 12 -1 20 4 49 11 63 16 35 -3 56 -33 37 -12 -8 -23
-12 -25 -10 -8 9 29 50 53 59 24 9 25 11 9 28 -19 21 -20 33 -4 49 17 17 26
15 34 -10z m-849 -105 c-2 -21 -4 -4 -4 37 0 41 2 58 4 38 2 -21 2 -55 0 -75z
m-60 75 c18 -17 23 -32 23 -73 0 -42 -22 -115 -35 -115 -1 0 -10 11 -19 25
-15 23 -15 24 1 19 11 -3 6 5 -12 21 -28 25 -28 26 -6 20 38 -11 20 18 -19 31
-19 6 -28 14 -22 18 7 4 21 2 33 -4 32 -18 33 -5 2 20 -21 16 -35 20 -60 15
-37 -7 -41 0 -16 27 24 27 100 25 130 -4z m-212 -29 c112 -76 123 -202 26
-299 -40 -40 -58 -50 -107 -60 -68 -15 -186 0 -214 25 -9 8 -21 15 -27 15 -18
0 -99 96 -122 143 -11 23 -23 56 -26 72 -5 21 1 15 18 -21 69 -143 219 -199
354 -131 67 33 96 78 90 140 -5 52 -23 78 -72 101 -37 18 -111 21 -149 6 -34
-13 -58 -52 -58 -97 0 -34 -1 -36 -10 -14 -13 35 -1 74 31 105 38 37 73 46
158 42 56 -2 80 -8 108 -27z m-478 -31 c-2 -13 -4 -5 -4 17 -1 22 1 32 4 23 2
-10 2 -28 0 -40z m2166 45 c-18 -2 -48 -2 -65 0 -18 2 -4 4 32 4 36 0 50 -2
33 -4z m-106 -9 c-3 -3 -12 -4 -19 -1 -8 3 -5 6 6 6 11 1 17 -2 13 -5z m-62
-24 c-3 -5 -12 -10 -18 -10 -7 0 -6 4 3 10 19 12 23 12 15 0z m106 -19 c-25
-23 -31 -37 -31 -69 0 -23 5 -53 10 -67 9 -24 8 -26 -12 -23 -15 2 -28 15 -37
36 -8 17 -19 32 -24 32 -18 0 3 -64 30 -92 l27 -28 -31 0 c-30 0 -53 19 -68
55 -7 18 -9 17 -15 -10 -7 -35 3 -63 34 -87 21 -17 20 -18 -24 -18 -65 0 -100
34 -100 98 0 26 5 54 10 62 7 11 10 4 10 -27 0 -24 5 -43 10 -43 6 0 10 18 10
40 0 53 23 96 61 115 29 16 29 15 17 -4 -10 -16 -10 -23 0 -33 9 -9 12 -9 12
3 0 26 45 70 80 79 59 14 63 11 31 -19z m-1736 7 c31 -14 63 -73 57 -106 -9
-59 -97 -112 -185 -112 -32 0 -107 22 -107 32 0 2 33 3 73 3 65 0 78 3 110 27
57 44 62 101 12 134 -23 15 -27 15 -50 0 -14 -9 -25 -24 -26 -34 0 -11 -2 -12
-6 -4 -7 19 23 60 49 65 40 8 47 7 73 -5z m1595 -2 c0 -3 -4 -8 -10 -11 -5 -3
-10 -1 -10 4 0 6 5 11 10 11 6 0 10 -2 10 -4z m-902 -18 c7 -7 12 -16 12 -20
0 -15 -15 -8 -28 12 -13 22 -3 27 16 8z m390 -40 c-5 -10 -19 -18 -31 -18 -20
-1 -20 -2 -5 -11 12 -7 24 -6 38 1 17 9 20 8 20 -10 0 -11 -6 -20 -12 -20 -21
0 -115 39 -96 40 10 0 32 16 50 34 28 30 34 32 39 18 4 -9 2 -25 -3 -34z
m-1496 15 c18 -16 26 -73 9 -73 -4 0 -22 5 -39 11 -25 9 -38 7 -63 -5 -18 -9
-34 -14 -36 -12 -7 7 83 96 97 96 7 0 22 -7 32 -17z m906 -6 c-18 -13 -60 -36
-91 -51 -31 -14 -57 -31 -57 -37 0 -6 -9 -22 -20 -36 -11 -14 -20 -21 -20 -16
0 5 5 14 11 20 5 5 18 25 27 44 9 19 23 34 30 34 8 0 24 13 37 29 18 22 28 27
47 23 13 -3 30 -2 38 3 32 21 31 9 -2 -13z m978 0 c3 -3 -3 -18 -13 -34 -27
-39 -61 -137 -71 -203 l-8 -55 -17 39 c-18 40 -23 141 -8 150 14 9 21 48 8 43
-17 -5 -29 -53 -36 -137 -6 -69 -7 -73 -19 -51 -8 13 -14 46 -14 73 1 55 -16
62 -31 12 -19 -62 -17 -61 -28 -43 -11 21 6 76 34 106 11 13 18 26 14 29 -9 9
-27 -5 -49 -40 -17 -27 -19 -28 -13 -6 11 42 39 74 91 103 40 23 58 27 101 24
29 -2 56 -6 59 -10z m54 -11 c0 -2 -8 -10 -17 -17 -16 -13 -17 -12 -4 4 13 16
21 21 21 13z m-567 -13 c-7 -2 -19 -2 -25 0 -7 3 -2 5 12 5 14 0 19 -2 13 -5z
m-235 -24 c82 -28 165 -102 198 -177 35 -79 33 -179 -4 -247 -89 -163 -295
-141 -356 39 -21 62 -20 105 3 160 22 49 61 77 108 75 l28 -1 -30 -7 c-92 -23
-122 -104 -72 -201 81 -159 256 -79 257 118 0 68 -18 114 -66 171 -39 47 -98
73 -184 81 l-75 7 66 1 c43 1 86 -5 127 -19z m-228 -4 c-14 -8 -29 -14 -35
-14 -5 0 1 6 15 14 14 8 30 14 35 14 6 0 -1 -6 -15 -14z m530 -33 c47 -23 56
-32 64 -64 7 -29 6 -42 -9 -65 l-19 -28 -8 31 c-10 40 -80 119 -127 144 l-36
20 40 -6 c22 -3 65 -18 95 -32z m452 9 c-9 -16 -18 -28 -21 -26 -4 5 27 55 34
55 2 0 -4 -13 -13 -29z m-831 9 c10 -6 19 -20 19 -32 0 -20 -1 -20 -19 -4 -21
19 -91 34 -91 19 0 -5 11 -15 25 -21 28 -13 32 -37 10 -66 -13 -17 -15 -17
-15 -3 0 31 -75 50 -110 27 -12 -8 -10 -10 10 -10 29 0 70 -25 70 -43 0 -7 -4
-18 -9 -26 -7 -12 -14 -10 -36 8 -42 32 -102 29 -155 -10 l-42 -31 23 42 c40
71 135 141 209 153 48 8 92 7 111 -3z m291 -55 c83 -79 122 -219 104 -369 -8
-62 -44 -116 -77 -116 -27 0 -24 27 10 91 54 99 59 209 15 299 -9 19 -42 61
-73 94 -61 64 -47 64 21 1z m-522 30 c0 -2 -10 -9 -22 -15 -22 -11 -22 -10 -4
4 21 17 26 19 26 11z m-822 -35 c12 -12 22 -24 22 -28 0 -19 -34 -52 -97 -94
-81 -55 -102 -77 -137 -143 l-26 -50 6 60 c14 134 40 197 106 249 41 32 95 35
126 6z m772 -4 c0 -2 -8 -10 -17 -17 -16 -13 -17 -12 -4 4 13 16 21 21 21 13z
m429 -45 c31 -59 35 -104 16 -160 -21 -65 -63 -101 -115 -101 -71 0 -116 89
-74 148 8 12 23 22 32 22 13 0 12 -3 -6 -16 -24 -17 -30 -62 -10 -82 21 -21
82 -15 106 11 43 46 55 127 27 193 -19 45 -1 34 24 -15z m638 -3 c-3 -8 -6 -5
-6 6 -1 11 2 17 5 13 3 -3 4 -12 1 -19z m43 -3 c0 -24 69 -75 103 -75 27 -1
29 -2 14 -11 -28 -16 -75 0 -101 34 -27 37 -45 84 -27 73 6 -4 11 -13 11 -21z
m-53 -97 c-2 -18 -4 -6 -4 27 0 33 2 48 4 33 2 -15 2 -42 0 -60z m-1126 49
c-10 -9 -11 -8 -5 6 3 10 9 15 12 12 3 -3 0 -11 -7 -18z m-558 -31 c82 -67
122 -81 227 -81 87 0 99 3 145 29 28 16 61 39 75 50 14 12 10 5 -9 -16 -48
-53 -119 -80 -220 -86 -132 -7 -248 27 -285 83 -20 30 -15 55 10 55 8 0 34
-15 57 -34z m741 9 c30 -28 36 -61 9 -50 -40 16 -52 16 -91 -4 -23 -12 -60
-40 -83 -64 l-41 -42 7 35 c11 53 31 85 72 119 47 39 90 41 127 6z m735 6 l24
-18 -36 -12 c-19 -7 -41 -19 -47 -27 -19 -21 -30 -17 -30 12 0 61 41 82 89 45z
m345 -57 c20 -3 53 -3 74 0 l37 7 -33 -31 c-20 -18 -40 -29 -49 -26 -8 3 -21
6 -28 6 -7 0 -34 21 -59 46 -28 28 -46 40 -46 30 0 -22 67 -86 108 -103 22 -9
48 -12 69 -8 28 5 33 3 33 -14 0 -28 -37 -51 -81 -51 -82 0 -156 111 -133 197
6 22 7 21 39 -12 20 -20 48 -36 69 -41z m-2320 10 c3 -8 2 -12 -4 -9 -6 3 -10
10 -10 16 0 14 7 11 14 -7z m2105 -10 c2 -2 -8 -4 -23 -4 -44 0 -92 -26 -137
-74 -61 -64 -91 -57 -55 12 21 41 52 64 94 72 34 7 111 2 121 -6z m-2113 -29
c32 -78 3 -139 -65 -133 -45 4 -50 21 -9 33 35 11 53 37 19 28 -12 -3 -21 -1
-21 5 0 5 9 12 19 15 15 4 19 12 17 33 -2 26 9 54 21 54 2 0 11 -16 19 -35z
m358 29 c41 -16 -3 -77 -69 -95 -24 -7 -58 -31 -92 -65 l-55 -54 7 32 c16 71
46 137 73 155 44 30 100 41 136 27z m673 -41 c-3 -10 -5 -4 -5 12 0 17 2 24 5
18 2 -7 2 -21 0 -30z m-999 2 c-3 -3 -9 2 -12 12 -6 14 -5 15 5 6 7 -7 10 -15
7 -18z m1192 5 c11 -6 24 -19 30 -29 9 -18 7 -18 -19 -8 -41 15 -107 -8 -148
-51 -38 -39 -43 -30 -10 16 51 68 105 94 147 72z m863 -17 c-44 -28 -83 -86
-83 -124 0 -49 -71 -123 -112 -117 -20 3 -23 8 -21 40 5 88 147 226 233 228
21 0 19 -3 -17 -27z m-2008 -97 c21 -70 11 -69 -12 1 -11 32 -23 67 -27 78 -5
13 -2 11 8 -5 9 -14 22 -47 31 -74z m2122 72 c-3 -8 -6 -5 -6 6 -1 11 2 17 5
13 3 -3 4 -12 1 -19z m-142 -53 c-14 -21 -25 -32 -25 -25 0 12 42 70 48 65 2
-2 -8 -20 -23 -40z m-1065 -18 c0 -37 45 -165 70 -199 l20 -27 -45 -7 c-88
-13 -171 21 -199 81 -15 32 -11 145 5 145 5 0 9 -9 9 -20 0 -24 21 -70 32 -70
4 0 8 22 8 48 0 27 6 57 15 68 13 17 14 14 15 -43 0 -34 5 -65 11 -68 6 -4 8
-12 6 -19 -3 -7 2 -23 9 -37 14 -23 15 -23 7 11 -11 51 -7 139 8 166 15 29 29
15 29 -29z m1120 9 c-9 -39 -2 -100 21 -189 10 -42 10 -51 -4 -65 -15 -14 -18
-14 -38 4 -28 25 -59 87 -59 118 0 35 28 104 58 144 13 18 26 32 27 30 2 -2 0
-21 -5 -42z m-1424 24 l35 0 -30 -37 c-76 -94 -73 -91 -66 -65 7 24 -4 29 -23
10 -9 -9 -12 -9 -12 3 0 8 14 23 30 32 33 20 41 42 11 32 -16 -5 -18 -2 -14
15 4 13 11 19 20 16 8 -3 30 -6 49 -6z m509 0 c4 -6 -6 -10 -24 -10 -38 0 -88
-42 -100 -83 l-9 -32 -1 34 c-1 44 53 101 97 101 17 0 34 -4 37 -10z m-717
-14 c99 -52 105 -179 11 -229 -59 -31 -140 -3 -138 47 0 20 1 20 9 -2 12 -29
54 -46 81 -32 10 6 26 22 35 35 14 21 14 30 4 55 -7 17 -26 42 -42 55 -56 48
-189 26 -260 -42 -40 -38 -34 -14 8 35 35 42 74 68 124 83 42 13 139 10 168
-5z m1834 -41 c49 -20 66 -19 111 5 48 26 49 26 45 -12 -3 -29 -7 -33 -35 -36
-34 -3 -44 -18 -18 -28 8 -4 31 -3 50 0 26 5 35 12 35 26 0 28 18 25 32 -6 11
-24 10 -29 -17 -50 l-30 -24 33 0 c18 0 40 8 51 19 21 21 31 18 31 -9 0 -19
-39 -40 -76 -40 -14 0 -53 9 -88 21 -71 22 -143 83 -185 154 l-23 40 24 -22
c13 -12 40 -29 60 -38z m-2266 3 c4 -6 -4 -20 -19 -33 -36 -28 -34 -36 4 -23
37 13 39 11 42 -38 2 -37 1 -39 -25 -36 -16 1 -28 -1 -28 -7 0 -10 24 -21 49
-21 14 0 20 -11 24 -42 3 -24 9 -63 12 -88 l6 -45 -30 50 c-36 61 -74 98 -126
125 -24 12 -30 18 -15 14 14 -3 49 -19 78 -35 28 -16 52 -25 52 -19 0 13 -53
46 -110 67 -54 20 -100 50 -100 65 0 7 10 2 23 -9 25 -24 85 -38 116 -28 32
10 25 25 -11 25 -29 0 -98 31 -98 44 0 3 15 2 34 -1 33 -5 96 20 96 39 0 12
18 9 26 -4z m981 -25 c-3 -10 -5 -4 -5 12 0 17 2 24 5 18 2 -7 2 -21 0 -30z
m191 27 c-24 -14 -47 -66 -41 -90 7 -27 15 -25 34 9 15 25 64 49 76 37 3 -3
-6 -19 -21 -36 -26 -31 -36 -80 -16 -80 6 0 10 8 10 19 0 21 15 35 48 46 23 7
23 6 8 -24 -24 -46 -20 -94 10 -130 l26 -31 -30 0 c-33 0 -92 42 -92 66 0 8
-4 14 -10 14 -5 0 -10 -9 -10 -20 0 -11 -3 -20 -7 -20 -15 0 -63 55 -63 71 0
25 -11 49 -22 49 -5 0 -7 -10 -3 -22 6 -23 6 -23 -10 -3 -12 15 -15 32 -11 68
7 62 34 86 96 86 34 0 41 -2 28 -9z m995 -156 c30 -57 37 -82 37 -128 0 -60
-13 -72 -43 -38 -25 27 -57 168 -56 247 l0 70 13 -40 c7 -22 29 -72 49 -111z
m-1484 83 c-1 -29 2 -63 5 -75 4 -13 3 -22 -3 -22 -13 0 -31 33 -31 57 0 22
19 93 25 93 3 0 4 -24 4 -53z m-329 29 c0 -2 3 -13 6 -23 6 -17 6 -17 -8 1
-19 24 -49 17 -67 -15 -13 -23 -13 -34 -1 -84 11 -46 11 -68 2 -113 -6 -31
-10 -58 -7 -60 2 -3 13 15 24 39 18 40 20 42 20 16 2 -67 -67 -150 -149 -180
-25 -10 -48 -17 -50 -17 -3 0 -4 49 -2 110 3 65 0 122 -7 141 -14 40 -7 48 20
23 31 -27 59 -92 59 -136 0 -44 15 -51 23 -10 10 48 -12 120 -48 157 l-32 35
25 0 c30 0 72 -36 72 -62 0 -10 5 -18 10 -18 6 0 10 18 10 40 0 30 -7 48 -31
75 -33 37 -25 46 16 19 24 -16 25 -16 25 9 0 46 10 57 51 57 21 0 39 -2 39 -4z
m643 -26 c3 -11 1 -18 -4 -14 -5 3 -9 12 -9 20 0 20 7 17 13 -6z m1252 -10
c10 -11 16 -20 13 -20 -3 0 -13 9 -23 20 -10 11 -16 20 -13 20 3 0 13 -9 23
-20z m-1635 -14 c-19 -24 -16 -82 5 -106 13 -14 14 -20 5 -20 -23 0 -50 32
-50 59 0 28 37 97 47 87 3 -3 0 -12 -7 -20z m-553 -18 c-3 -7 -5 -2 -5 12 0
14 2 19 5 13 2 -7 2 -19 0 -25z m1900 -17 l2 -50 -29 11 c-17 5 -30 12 -30 15
0 4 51 73 54 73 0 0 2 -22 3 -49z m-1144 -74 c20 -15 43 -27 53 -27 12 0 1
-16 -35 -54 -28 -30 -51 -62 -51 -70 0 -21 -29 -20 -37 0 -3 9 0 26 7 37 9 15
9 22 2 25 -18 6 -62 43 -62 52 0 4 9 6 20 3 11 -3 26 -3 34 0 13 5 14 9 1 34
-8 15 -15 44 -15 63 l0 35 24 -36 c13 -19 40 -47 59 -62z m507 60 c0 -41 24
-64 66 -65 28 -1 31 2 28 26 -4 27 -4 27 4 2 4 -14 16 -26 26 -28 12 -3 16 0
11 8 -4 7 4 4 19 -5 25 -16 25 -19 9 -30 -99 -66 -190 -44 -200 48 -4 30 -1
52 7 62 20 24 30 18 30 -18z m911 7 c5 -15 8 -29 5 -31 -2 -2 -8 10 -14 26
-13 38 -5 41 9 5z m74 8 c-3 -3 -11 0 -18 7 -9 10 -8 11 6 5 10 -3 15 -9 12
-12z m-2238 -54 c-2 -13 -4 -5 -4 17 -1 22 1 32 4 23 2 -10 2 -28 0 -40z
m1008 -18 c28 -30 37 -43 21 -30 -40 34 -75 73 -76 84 0 5 1 7 3 5 1 -2 25
-29 52 -59z m543 28 c-11 -37 -11 -43 -3 -78 4 -17 -4 -47 -23 -90 -29 -63
-30 -64 -38 -36 -4 17 -2 49 4 73 17 63 16 66 -18 60 -29 -6 -29 -6 -10 13 11
11 20 25 20 30 0 6 6 10 13 10 8 0 24 11 37 25 13 14 25 25 26 25 1 0 -2 -15
-8 -32z m-1733 -9 c54 -30 83 -57 111 -101 36 -56 29 -56 -22 1 -77 86 -177
122 -267 98 -20 -6 -27 -4 -22 3 23 37 136 36 200 -1z m1495 4 c0 -25 -1 -26
-16 -11 -9 9 -13 21 -10 27 13 20 26 11 26 -16z m512 -15 c57 -17 125 -81 138
-129 13 -48 -1 -104 -30 -119 -31 -17 -34 -11 -6 11 20 16 26 29 26 61 0 75
-64 128 -154 128 -36 0 -52 -6 -78 -29 -29 -26 -33 -35 -32 -78 1 -57 22 -102
72 -150 49 -48 89 -63 162 -63 68 0 121 18 166 58 16 15 11 8 -13 -15 -79 -76
-222 -104 -317 -63 -164 70 -224 232 -127 341 48 54 115 71 193 47z m368 -80
c0 -37 -3 -69 -7 -71 -5 -3 -8 32 -8 78 0 46 3 78 7 72 4 -7 8 -42 8 -79z
m233 85 c-13 -2 -35 -2 -50 0 -16 2 -5 4 22 4 28 0 40 -2 28 -4z m-2636 -34
c53 -23 75 -40 106 -84 20 -27 17 -26 -28 11 -86 71 -139 80 -244 45 -35 -12
-65 -20 -68 -18 -2 2 12 18 32 36 31 27 43 31 95 31 37 0 76 -8 107 -21z
m2528 -52 c6 -6 1 -7 -14 -2 -20 6 -23 4 -18 -9 4 -9 2 -16 -2 -16 -5 0 -11 7
-15 15 -3 8 -10 15 -16 15 -6 0 -4 -14 5 -36 17 -42 20 -74 5 -74 -5 0 -10 9
-10 19 0 11 -4 23 -10 26 -5 3 -10 -3 -10 -14 0 -12 -4 -21 -9 -21 -4 0 -8 37
-8 83 l1 84 46 -30 c25 -17 50 -34 55 -40z m-2308 26 c-3 -10 -5 -4 -5 12 0
17 2 24 5 18 2 -7 2 -21 0 -30z m1028 -30 c27 -18 56 -33 64 -33 8 0 1 -13
-18 -32 -20 -21 -31 -42 -31 -61 0 -19 -4 -27 -12 -24 -8 2 -12 19 -11 41 1
20 -2 36 -7 36 -18 0 -32 -44 -27 -86 4 -39 2 -44 -15 -44 -11 0 -33 9 -49 21
-43 30 -39 68 11 112 45 38 49 47 21 47 -53 0 -107 -86 -99 -156 l4 -35 -40 7
c-116 19 -137 79 -58 166 40 44 81 68 132 78 49 10 77 2 135 -37z m-725 -53
c0 -33 19 -40 44 -15 29 30 36 9 11 -39 -16 -30 -12 -46 11 -46 9 0 14 -11 14
-30 l0 -30 -37 20 c-21 11 -59 23 -85 26 -27 4 -48 8 -48 10 0 2 11 24 25 50
17 32 25 63 25 98 l0 51 20 -33 c11 -18 20 -46 20 -62z m1090 50 c-8 -5 -19
-10 -25 -10 -5 0 -3 5 5 10 8 5 20 10 25 10 6 0 3 -5 -5 -10z m-843 -17 c4
-11 0 -20 -12 -27 -44 -25 -75 -65 -76 -98 -1 -52 -17 -4 -18 54 -1 36 4 52
21 68 27 25 76 27 85 3z m583 7 c8 -5 11 -10 5 -10 -5 0 -17 5 -25 10 -8 5
-10 10 -5 10 6 0 17 -5 25 -10z m768 -60 l3 -25 -13 25 c-10 19 -23 26 -51 28
-31 3 -39 -1 -48 -22 -14 -31 -4 -89 19 -108 35 -30 100 -50 146 -47 40 4 44
2 31 -11 -10 -9 -36 -14 -82 -14 -56 0 -75 5 -110 27 -55 35 -73 63 -73 115 0
33 6 48 26 67 35 33 62 35 109 11 28 -15 41 -29 43 -46z m-479 13 c-1 -21 -3
-30 -6 -20 -3 10 -10 16 -16 14 -17 -5 -21 -55 -6 -73 10 -13 10 -17 -2 -25
-19 -12 -25 -11 -39 6 -7 9 -10 26 -6 42 l7 28 -21 -30 c-24 -37 -26 -74 -3
-90 15 -11 14 -14 -15 -29 -39 -20 -71 -21 -78 -1 -4 9 5 39 19 67 14 29 24
54 22 56 -2 2 -18 -6 -35 -18 -35 -25 -50 -56 -50 -102 l0 -31 -25 23 c-34 32
-31 56 10 97 20 20 34 37 32 39 -8 9 -69 -29 -83 -52 -9 -13 -20 -22 -24 -19
-14 9 2 50 29 72 23 20 24 23 7 23 -11 0 -30 -10 -43 -22 -25 -24 -31 -13 -9
18 12 16 29 19 123 21 59 2 117 7 128 12 87 38 85 38 84 -6z m-161 20 c-16 -2
-40 -2 -55 0 -16 2 -3 4 27 4 30 0 43 -2 28 -4z m-1516 -45 c8 -7 18 -21 22
-31 5 -17 3 -16 -20 2 -35 27 -55 26 -84 -4 -31 -33 -23 -90 17 -122 67 -54
182 -35 266 45 l37 36 -19 -40 c-36 -75 -130 -128 -225 -128 -107 1 -161 44
-161 129 0 43 5 59 25 80 14 15 34 31 45 35 30 13 79 12 97 -2z m835 -34 c2
-6 -5 -14 -16 -17 -24 -6 -61 -63 -62 -97 -1 -21 -2 -20 -11 9 -12 43 -3 97
20 111 21 12 64 9 69 -6z m-580 -41 c-3 -10 -5 -2 -5 17 0 19 2 27 5 18 2 -10
2 -26 0 -35z m671 -20 c15 -10 30 -22 34 -28 11 -15 9 -73 -2 -80 -7 -4 -8 3
-4 20 4 18 1 32 -11 45 -23 26 -46 25 -79 -1 -33 -26 -35 -79 -5 -129 25 -41
47 -58 103 -83 l41 -18 -45 4 c-56 5 -106 36 -145 90 -23 33 -29 52 -30 95 0
48 3 56 30 78 35 28 75 31 113 7z m882 -6 c0 -22 47 -113 71 -138 13 -15 38
-33 54 -42 17 -9 25 -16 19 -17 -23 0 -109 66 -141 108 -30 40 -43 89 -27 105
9 9 24 -1 24 -16z m694 -102 c5 -19 1 -20 -88 -20 -100 0 -100 0 -63 48 18 22
23 22 31 -5 6 -21 8 -18 28 22 l22 45 5 -40 6 -40 12 30 c6 17 15 41 19 55 7
21 9 18 15 -25 3 -28 9 -60 13 -70z m-1981 90 c53 -9 74 -43 58 -94 -6 -21
-21 -50 -32 -65 l-22 -27 -28 35 c-34 40 -86 61 -134 52 -32 -6 -60 -28 -49
-38 3 -3 21 -1 40 5 28 8 41 7 69 -6 41 -19 44 -41 16 -102 l-18 -40 -16 31
c-17 33 -57 64 -82 64 -22 0 -19 -9 10 -32 14 -11 25 -26 25 -34 0 -19 -7 -18
-39 5 -15 11 -40 21 -57 23 l-30 3 25 79 c21 63 33 85 62 108 34 28 112 50
149 43 8 -2 32 -6 53 -10z m-275 -52 c-9 -58 -44 -170 -59 -187 -4 -5 -1 13 8
40 29 92 43 148 43 176 0 15 4 28 8 28 5 0 5 -26 0 -57z m1069 17 c4 -12 7
-12 19 4 17 24 18 8 3 -31 -6 -15 -14 -52 -18 -80 l-6 -53 -43 56 c-24 31 -39
53 -33 50 5 -4 14 1 19 10 9 15 10 15 17 -5 3 -11 10 -19 15 -16 5 3 7 12 3
20 -3 9 -2 32 2 53 4 20 10 30 12 22 3 -8 7 -22 10 -30z m-603 5 c22 -33 20
-36 -11 -20 -15 8 -30 12 -35 9 -10 -6 -11 20 -1 29 13 13 31 7 47 -18z m411
-25 c4 -6 -8 -10 -29 -10 -25 0 -39 -6 -50 -22 -15 -22 -16 -22 -16 -2 0 11 5
25 12 32 15 15 74 16 83 2z m547 4 c4 -3 -7 -25 -24 -50 -16 -24 -33 -56 -38
-71 -5 -16 -18 -53 -29 -83 l-20 -55 0 67 c-1 74 28 171 57 188 19 11 46 13
54 4z m86 -48 c2 -36 -7 -78 -34 -160 -37 -108 -38 -114 -39 -261 0 -82 3
-197 8 -254 4 -58 5 -102 1 -99 -13 14 -75 266 -94 383 -22 135 -6 221 62 350
58 108 91 122 96 41z m-1055 23 c12 -7 31 -21 42 -32 19 -21 19 -21 0 -13 -53
21 -85 26 -105 16 -16 -8 -20 -8 -20 4 0 16 26 35 48 36 7 0 23 -5 35 -11z
m348 -65 c-17 -14 -31 -33 -31 -42 0 -14 -2 -15 -9 -3 -12 19 4 50 32 61 38
15 40 11 8 -16z m400 16 c5 0 9 -4 9 -10 0 -5 -8 -10 -18 -10 -40 0 -65 -48
-83 -159 -3 -17 -17 50 -18 84 -1 60 46 113 87 99 8 -2 18 -4 23 -4z m-211
-31 c17 -17 37 -44 46 -60 l15 -29 -46 35 c-56 42 -85 51 -125 37 -24 -9 -30
-8 -30 3 0 21 41 45 76 45 23 0 42 -9 64 -31z m-507 7 c18 -7 41 -24 52 -37
l20 -23 -29 22 c-32 24 -104 30 -124 10 -7 -7 -12 -24 -12 -39 0 -22 5 -28 28
-32 26 -4 25 -4 -5 -6 -23 -1 -36 5 -47 21 -23 32 -20 54 10 77 31 24 62 26
107 7z m1827 -16 c11 -8 7 -9 -15 -4 -37 8 -45 14 -19 14 10 0 26 -5 34 -10z
m-2466 -34 c21 -19 36 -43 36 -56 0 -33 -38 -101 -70 -127 l-28 -23 -4 30 c-2
16 -1 27 3 24 15 -9 18 14 4 26 -8 7 -15 17 -15 22 0 6 6 6 14 -1 10 -8 16 -9
21 -1 7 11 -8 30 -40 48 -20 11 -20 11 2 12 12 0 25 -4 28 -10 3 -5 10 -10 16
-10 15 0 10 19 -11 40 -11 11 -31 20 -45 20 -27 0 -32 9 -13 28 22 22 65 13
102 -22z m2173 28 c-3 -3 -12 -4 -19 -1 -8 3 -5 6 6 6 11 1 17 -2 13 -5z m69
-36 c-41 -48 -60 -106 -53 -160 3 -21 1 -38 -5 -38 -44 0 -77 68 -59 123 16
48 94 115 134 116 15 1 12 -7 -17 -41z m55 7 c-44 -51 -57 -101 -37 -149 21
-51 21 -51 -14 -26 -23 16 -30 29 -30 54 0 36 36 98 79 133 37 31 38 28 2 -12z
m73 16 c-44 -27 -64 -59 -64 -104 0 -23 -4 -36 -10 -32 -13 8 -13 58 0 87 12
25 67 66 90 67 8 1 1 -8 -16 -18z m-958 -26 c18 -13 17 -14 -18 -15 -28 0 -42
-7 -62 -31 -29 -34 -35 -27 -10 11 34 51 57 60 90 35z m436 -26 c40 -42 29
-56 -51 -61 -78 -6 -105 -22 -145 -83 -29 -44 -33 -33 -11 39 41 134 135 181
207 105z m106 34 c-10 -2 -26 -2 -35 0 -10 3 -2 5 17 5 19 0 27 -2 18 -5z
m162 3 c0 -2 -7 -7 -16 -10 -8 -3 -12 -2 -9 4 6 10 25 14 25 6z m365 -6 c4 -6
-7 -10 -24 -10 -17 0 -31 -4 -31 -9 0 -5 -8 -11 -17 -14 -10 -2 12 -2 48 1 63
4 68 3 100 -26 32 -29 32 -31 12 -32 -30 0 -29 -18 1 -26 34 -8 65 -44 72 -84
7 -34 6 -34 -12 -19 -10 9 -33 21 -51 28 -29 12 -37 11 -78 -12 l-45 -26 0 25
c0 17 9 30 30 42 35 20 38 32 9 32 -11 0 -34 -13 -51 -30 -16 -17 -31 -30 -34
-30 -2 0 -4 13 -4 29 0 21 9 37 33 55 l32 26 -37 0 c-38 0 -78 -27 -78 -52 0
-8 -3 -9 -10 -2 -6 6 -11 28 -12 49 -2 52 44 95 102 95 21 0 42 -4 45 -10z
m99 -39 c-3 -3 -15 6 -27 18 l-22 24 27 -19 c14 -10 24 -21 22 -23z m-504 26
c0 -2 -15 -16 -32 -33 l-33 -29 29 33 c28 30 36 37 36 29z m-1664 -88 c12 -13
28 -19 48 -17 26 3 31 7 31 30 -1 21 2 24 12 16 19 -15 16 -45 -7 -68 -28 -28
-47 -25 -86 14 -28 28 -34 41 -33 73 l1 38 8 -33 c4 -18 16 -42 26 -53z m1684
44 c-31 -59 -21 -125 25 -163 13 -10 13 -15 3 -21 -30 -20 -57 -9 -75 29 -17
35 -18 36 -21 11 -5 -39 14 -79 38 -79 18 0 19 -3 10 -21 -19 -34 -41 -35 -68
-3 l-24 29 6 -39 c3 -21 13 -44 23 -51 17 -13 17 -14 -1 -21 -35 -13 -48 21
-44 116 3 71 9 93 32 132 24 41 97 118 111 118 3 0 -4 -17 -15 -37z m-1067
-20 c4 -37 12 -54 37 -75 43 -39 53 -27 24 27 -14 24 -24 55 -22 67 2 19 9 23
37 21 44 -2 70 -26 51 -48 -15 -18 -8 -79 13 -99 12 -13 14 -10 13 22 -1 28 3
37 18 40 27 6 40 -12 22 -31 -20 -19 -20 -46 -1 -70 13 -18 14 -18 17 4 2 12
10 24 18 27 12 4 13 2 3 -9 -7 -7 -13 -25 -13 -40 l0 -27 -62 25 c-54 22 -72
25 -136 19 -81 -6 -142 10 -142 39 0 14 4 13 26 -4 38 -30 64 -28 32 2 -27 25
-44 64 -34 75 4 3 13 -4 21 -15 18 -26 84 -68 92 -59 4 4 -10 20 -30 37 -41
34 -49 75 -21 103 24 25 31 19 37 -31z m-957 -5 c-18 -26 -22 -17 -5 14 6 11
13 17 16 15 3 -3 -2 -16 -11 -29z m128 25 c3 -4 -8 -12 -26 -17 -47 -16 -46
-32 3 -28 53 5 75 -14 26 -23 -41 -8 -97 -40 -97 -56 0 -7 8 -6 23 3 12 8 37
18 55 21 27 6 38 2 58 -18 13 -13 24 -33 24 -43 0 -20 0 -20 -37 0 -43 22
-106 19 -132 -6 -14 -15 -11 -16 36 -16 35 0 58 -6 74 -19 l24 -20 -25 -24
c-26 -26 -78 -48 -66 -28 11 18 -32 51 -66 51 l-33 0 25 -20 c20 -15 23 -23
14 -36 -15 -25 -34 -29 -34 -8 0 21 -28 43 -54 44 -16 0 -17 -3 -8 -12 26 -26
10 -35 -17 -10 l-30 25 45 40 c25 22 64 69 86 104 54 85 105 123 132 96z
m2411 -13 c10 -11 16 -20 13 -20 -3 0 -13 9 -23 20 -10 11 -16 20 -13 20 3 0
13 -9 23 -20z m-1930 -57 c0 -58 28 -103 81 -128 50 -23 55 -10 11 26 -70 58
-72 96 -7 129 52 26 64 26 49 -1 -19 -36 3 -119 32 -119 5 0 7 16 6 36 -1 22
3 39 11 41 8 3 12 -5 12 -23 0 -16 11 -39 25 -54 l26 -27 -67 -43 c-62 -40
-69 -42 -119 -37 -96 10 -198 99 -193 167 4 41 53 80 102 80 30 0 31 -1 31
-47z m1975 -17 c0 -6 -7 -1 -15 10 -8 10 -15 23 -15 28 0 6 7 1 15 -10 8 -10
15 -23 15 -28z m-2313 -3 c4 -16 7 -58 7 -95 0 -61 -3 -71 -29 -98 -16 -16
-36 -30 -44 -29 -11 0 -10 3 4 8 11 5 26 20 34 34 13 24 12 42 -5 139 -11 63
18 97 33 41z m-316 -10 c-31 -53 -165 -173 -194 -173 -6 0 9 13 34 28 24 16
71 58 104 95 63 70 72 78 56 50z m1445 -105 c7 -53 17 -105 22 -115 5 -10 12
-34 16 -53 3 -19 16 -66 27 -103 12 -38 19 -70 17 -72 -2 -2 -27 35 -55 83
-29 48 -70 106 -92 130 -44 47 -57 90 -46 148 7 42 50 86 79 82 18 -3 22 -15
32 -100z m-946 57 c0 -8 24 -39 54 -70 30 -30 49 -55 42 -55 -22 0 -95 -59
-117 -93 l-20 -32 4 40 c3 22 8 50 12 63 7 20 4 22 -24 22 -17 0 -31 3 -31 7
0 14 34 43 51 43 15 0 16 4 6 29 -11 30 -5 61 13 61 5 0 10 -7 10 -15z m1417
-52 c-3 -10 -5 -2 -5 17 0 19 2 27 5 18 2 -10 2 -26 0 -35z m678 12 c30 -29
34 -95 10 -152 -15 -35 -16 -36 -34 -17 -12 13 -15 21 -7 26 13 9 -1 24 -29
31 -15 3 -13 5 8 6 39 1 30 25 -11 29 -18 2 -32 8 -32 14 0 6 13 8 30 6 35 -5
38 2 10 27 -14 13 -29 16 -55 12 -39 -6 -43 -2 -18 25 25 28 97 25 128 -7z
m-2938 -57 c-2 -13 -4 -3 -4 22 0 25 2 35 4 23 2 -13 2 -33 0 -45z m2694 48
c53 -22 85 -52 108 -101 26 -56 27 -100 2 -151 -41 -83 -129 -134 -232 -134
-33 0 -67 4 -77 9 -9 5 -38 19 -64 31 -26 12 -66 43 -89 68 -39 44 -79 119
-79 145 1 7 7 -2 14 -18 18 -42 77 -100 128 -126 126 -65 321 14 321 131 0 52
-29 89 -90 116 -63 28 -71 29 -123 8 -49 -20 -85 -72 -76 -112 5 -20 4 -23 -4
-12 -26 39 7 107 67 139 46 24 144 28 194 7z m-1196 -16 c13 -6 15 -9 5 -9 -8
0 -22 4 -30 9 -18 12 -2 12 25 0z m-131 -25 c-51 -35 -62 -107 -26 -162 14
-22 14 -23 -18 -12 -17 7 -34 19 -37 28 -15 51 -22 56 -22 19 -1 -25 7 -46 25
-67 l26 -31 -30 0 c-29 0 -54 20 -65 53 -8 23 -27 13 -27 -14 0 -25 27 -79 40
-79 6 0 10 -4 10 -10 0 -13 -51 -13 -83 -1 -15 6 -31 25 -41 50 -20 51 -20 75
-1 91 13 11 15 8 15 -16 0 -16 5 -36 10 -44 7 -11 10 -6 10 20 0 61 19 108 52
131 l31 23 -7 -27 c-5 -20 -3 -27 9 -27 8 0 15 8 15 18 0 33 57 70 110 71 24
1 24 1 4 -14z m187 -2 c13 -17 13 -17 -6 -3 -11 8 -22 16 -24 17 -2 2 0 3 6 3
6 0 17 -8 24 -17z m1060 -3 c6 0 21 -12 34 -26 31 -34 33 -91 5 -126 -46 -59
-170 -86 -238 -52 -47 23 -47 33 -1 22 91 -24 199 31 199 99 0 58 -72 86 -103
41 -12 -18 -16 -19 -16 -7 -1 9 5 22 13 28 19 16 68 30 84 25 8 -2 18 -4 23
-4z m-1401 -4 c0 -2 -12 -11 -27 -20 l-28 -17 24 20 c23 21 31 25 31 17z
m-514 -62 c-11 -7 -24 -15 -30 -17 -6 -2 -8 -7 -5 -11 3 -4 18 -2 33 3 23 9
26 8 26 -9 0 -11 -3 -20 -6 -20 -9 0 -88 23 -93 27 -2 1 14 20 35 41 36 36 40
37 49 19 7 -15 5 -23 -9 -33z m1561 9 c-3 -10 -5 -4 -5 12 0 17 2 24 5 18 2
-7 2 -21 0 -30z m-35 -19 c16 -35 1 -46 -45 -33 -29 8 -44 7 -67 -5 -37 -18
-38 -7 -3 34 46 55 91 57 115 4z m-1134 9 c-35 -40 -88 -185 -88 -240 0 -13
-4 -23 -10 -23 -22 0 -32 106 -18 185 4 22 5 33 1 25 -3 -8 -10 -18 -15 -21
-5 -3 -13 -46 -16 -95 l-8 -89 -18 34 c-11 21 -16 48 -14 72 5 52 -14 45 -26
-9 -12 -53 -26 -54 -26 -3 0 28 8 49 26 71 15 17 23 34 19 38 -4 4 -18 -6 -31
-23 -13 -16 -24 -25 -24 -18 0 28 24 61 63 85 36 23 54 27 121 27 75 1 78 0
64 -16z m-929 -27 c-2 -2 -20 -6 -39 -10 -25 -4 -31 -3 -20 4 14 9 69 15 59 6z
m432 -23 c98 -27 141 -84 109 -144 -15 -26 -26 -24 -38 9 -12 36 -57 88 -106
123 -46 34 -45 34 35 12z m-562 -32 c-13 -11 -26 -17 -28 -15 -5 5 30 33 43
34 4 0 -2 -9 -15 -19z m1043 -21 c-9 -21 -18 -35 -20 -30 -3 9 25 70 33 70 2
0 -4 -18 -13 -40z m1869 -63 c-10 -9 -11 -8 -5 6 3 10 9 15 12 12 3 -3 0 -11
-7 -18z m-1818 -45 c12 -13 38 -25 61 -29 40 -6 40 -7 14 -15 -35 -12 -82 12
-103 52 -17 33 -20 66 -3 35 6 -11 20 -30 31 -43z m-302 -17 l30 -16 -57 -29
c-31 -17 -58 -30 -60 -30 -7 0 9 65 19 78 13 16 32 15 68 -3z" id="node2" class="node" stroke-width="20"></path>


<path d="M213 2964 c7 -43 50 -102 84 -115 85 -32 162 18 187 124 10 40 -27
38 -44 -3 -15 -36 -77 -90 -103 -90 -20 0 -66 27 -84 50 -7 8 -13 27 -13 43 0
18 -5 27 -16 27 -13 0 -15 -7 -11 -36z" id="node5" class="node" stroke-width="20"></path>
<path d="M260 2985 c0 -33 70 -46 108 -19 36 25 25 34 -43 34 -50 0 -65 -3
-65 -15z" id="node6" class="node" stroke-width="20"></path>



<path d="M0 1617 c0 -18 9 -28 38 -39 94 -37 111 -229 26 -299 -16 -13 -17
-13 -2 11 35 57 28 163 -14 207 -43 46 -47 35 -47 -138 l0 -161 27 17 c89 57
125 121 126 225 1 61 -3 82 -22 112 -48 78 -132 119 -132 65z" id="node10" class="node" stroke-width="20"></path>
<path d="M2962 1623 c-51 -25 -76 -68 -80 -140 -4 -58 -2 -64 26 -93 21 -20
40 -30 61 -30 l31 0 0 80 c0 78 -1 80 -24 80 -26 0 -56 -23 -56 -43 0 -7 7
-23 16 -35 8 -12 11 -22 6 -22 -19 0 -35 32 -35 71 0 45 29 83 69 93 17 5 24
13 24 31 0 14 -1 25 -2 25 -2 0 -18 -8 -36 -17z" id="node11" class="node" stroke-width="20"></path>


<path d="M1451 119 c-18 -11 -38 -33 -44 -49 -6 -17 -15 -30 -19 -30 -4 0 -8
-9 -8 -20 0 -25 17 -26 24 -2 10 31 51 62 90 69 34 5 40 2 81 -41 39 -40 75
-59 75 -39 0 26 -47 95 -76 112 -44 26 -80 26 -123 0z" id="node14" class="node" stroke-width="20"></path>
<path d="M1458 23 c-37 -9 -16 -23 35 -23 48 1 50 2 33 15 -20 15 -35 17 -68
8z" id="node15" class="node" stroke-width="20"></path>
</g>
<g transform="translate(0.000000,300.000000) scale(0.100000,-0.100000)" fill="#8CF34F" stroke="none">































































































































































































































































































































</g>
</svg>
